<mxfile host="app.diagrams.net" modified="2021-11-11T08:30:33.518Z" agent="5.0 (Windows NT 10.0; Win64; x64) AppleWebKit/537.36 (KHTML, like Gecko) Chrome/95.0.4638.69 Safari/537.36" etag="wP3HAhW65gYQIRq_MYlk" version="15.7.3" type="github">
  <diagram id="PbObOoGqxsLGGYJ1RfE8" name="Page-1">
    <mxGraphModel dx="1422" dy="762" grid="1" gridSize="10" guides="1" tooltips="1" connect="1" arrows="1" fold="1" page="1" pageScale="1" pageWidth="1169" pageHeight="827" math="0" shadow="0">
      <root>
        <mxCell id="0" />
        <mxCell id="1" parent="0" />
        <mxCell id="BO0biLTfd77MQqu4foBH-2" style="edgeStyle=orthogonalEdgeStyle;rounded=0;orthogonalLoop=1;jettySize=auto;html=1;" edge="1" parent="1" source="BO0biLTfd77MQqu4foBH-1" target="BO0biLTfd77MQqu4foBH-3">
          <mxGeometry relative="1" as="geometry">
            <mxPoint x="210" y="240" as="targetPoint" />
          </mxGeometry>
        </mxCell>
        <mxCell id="BO0biLTfd77MQqu4foBH-1" value="Code Base (Github)" style="rounded=1;whiteSpace=wrap;html=1;" vertex="1" parent="1">
          <mxGeometry x="150" y="90" width="120" height="60" as="geometry" />
        </mxCell>
        <mxCell id="BO0biLTfd77MQqu4foBH-4" style="edgeStyle=orthogonalEdgeStyle;rounded=0;orthogonalLoop=1;jettySize=auto;html=1;" edge="1" parent="1" source="BO0biLTfd77MQqu4foBH-3" target="BO0biLTfd77MQqu4foBH-5">
          <mxGeometry relative="1" as="geometry">
            <mxPoint x="70" y="340" as="targetPoint" />
          </mxGeometry>
        </mxCell>
        <mxCell id="BO0biLTfd77MQqu4foBH-6" style="edgeStyle=orthogonalEdgeStyle;rounded=0;orthogonalLoop=1;jettySize=auto;html=1;exitX=0.5;exitY=1;exitDx=0;exitDy=0;" edge="1" parent="1" source="BO0biLTfd77MQqu4foBH-3" target="BO0biLTfd77MQqu4foBH-7">
          <mxGeometry relative="1" as="geometry">
            <mxPoint x="210" y="350" as="targetPoint" />
          </mxGeometry>
        </mxCell>
        <mxCell id="BO0biLTfd77MQqu4foBH-8" style="edgeStyle=orthogonalEdgeStyle;rounded=0;orthogonalLoop=1;jettySize=auto;html=1;" edge="1" parent="1" source="BO0biLTfd77MQqu4foBH-3" target="BO0biLTfd77MQqu4foBH-9">
          <mxGeometry relative="1" as="geometry">
            <mxPoint x="330" y="330" as="targetPoint" />
          </mxGeometry>
        </mxCell>
        <mxCell id="BO0biLTfd77MQqu4foBH-3" value="pipeline" style="rounded=1;whiteSpace=wrap;html=1;" vertex="1" parent="1">
          <mxGeometry x="150" y="210" width="120" height="60" as="geometry" />
        </mxCell>
        <mxCell id="BO0biLTfd77MQqu4foBH-5" value="Build &amp;amp; deploy" style="whiteSpace=wrap;html=1;aspect=fixed;" vertex="1" parent="1">
          <mxGeometry x="30" y="310" width="80" height="80" as="geometry" />
        </mxCell>
        <mxCell id="BO0biLTfd77MQqu4foBH-7" value="Scan for Apps" style="whiteSpace=wrap;html=1;aspect=fixed;" vertex="1" parent="1">
          <mxGeometry x="170" y="310" width="80" height="80" as="geometry" />
        </mxCell>
        <mxCell id="BO0biLTfd77MQqu4foBH-9" value="Compliance &amp;amp; Security" style="whiteSpace=wrap;html=1;aspect=fixed;" vertex="1" parent="1">
          <mxGeometry x="290" y="310" width="80" height="80" as="geometry" />
        </mxCell>
      </root>
    </mxGraphModel>
  </diagram>
</mxfile>
